<?xml version="1.0" standalone="no"?>
<!DOCTYPE svg PUBLIC "-//W3C//DTD SVG 20010904//EN"
 "http://www.w3.org/TR/2001/REC-SVG-20010904/DTD/svg10.dtd">
<svg version="1.0" xmlns="http://www.w3.org/2000/svg"
 width="587.000000pt" height="491.000000pt" viewBox="0 0 587.000000 491.000000"
 preserveAspectRatio="xMidYMid meet">

<g transform="translate(0.000000,491.000000) scale(0.100000,-0.100000)"
fill="#000000" stroke="none">
<path d="M3051 4900 c-430 -45 -1137 -319 -1709 -664 -322 -194 -771 -516
-967 -693 -316 -286 -426 -500 -331 -643 36 -55 131 -115 234 -147 76 -24 93
-25 205 -20 177 8 317 44 561 143 273 112 499 261 446 294 -19 12 -72 -6 -205
-67 -159 -74 -265 -113 -470 -174 -135 -41 -190 -52 -266 -56 -90 -5 -98 -4
-119 17 -30 30 -24 85 19 176 105 224 610 663 1146 996 550 342 1283 670 1605
719 116 18 243 -3 286 -46 36 -36 33 -111 -11 -244 -38 -113 -121 -294 -182
-395 -20 -33 -294 -466 -608 -961 -587 -924 -695 -1098 -830 -1340 -93 -167
-281 -545 -287 -579 -12 -62 54 -119 214 -183 53 -22 60 -22 91 -9 43 18 126
120 199 246 72 123 151 233 364 510 191 249 582 722 602 728 6 2 12 -3 12 -12
0 -8 25 -89 54 -180 188 -566 456 -1070 832 -1566 329 -433 565 -638 834 -722
222 -69 621 21 852 192 130 96 148 152 148 455 0 253 -10 331 -46 362 -56 50
-79 23 -88 -102 -8 -113 -38 -279 -66 -359 -55 -160 -154 -287 -270 -347 -57
-29 -77 -33 -161 -37 -195 -9 -353 72 -560 285 -219 226 -444 576 -714 1113
-337 671 -424 917 -413 1163 7 159 66 254 302 492 401 402 836 721 1269 930
236 114 287 129 437 130 100 0 131 -3 156 -17 47 -26 92 -74 142 -153 25 -38
52 -76 60 -82 42 -34 57 2 41 97 -49 305 -381 413 -812 264 -291 -101 -594
-291 -947 -593 -177 -152 -1109 -1083 -1281 -1281 -259 -296 -681 -808 -792
-960 -25 -34 -21 -28 248 440 343 595 578 945 970 1444 445 567 612 786 641
844 39 79 45 172 14 232 -69 135 -292 288 -496 340 -93 24 -237 32 -353 20z"/>
</g>
</svg>
