<svg width="174" height="28" viewBox="0 0 174 28" fill="none" xmlns="http://www.w3.org/2000/svg">
<path d="M16.4315 17.2583H6.03127L3.98101 22.0781H0L9.35951 1.25032H13.1622L22.552 22.0781H18.5112L16.4315 17.2583ZM15.1536 14.2228L11.2314 5.11815L7.33867 14.2228H15.1536Z" fill="black"/>
<path d="M26.1135 0H22.3992V22.0781H26.1135V0Z" fill="black"/>
<path d="M32.2627 0H28.5483V22.0781H32.2627V0Z" fill="black"/>
<path d="M50.3271 12.9734V22.0781H46.6127V13.4494C46.6127 10.6229 45.2161 9.25387 42.8395 9.25387C40.1944 9.25387 38.4126 10.8604 38.4126 14.0442V22.0781H34.6973V6.1889H38.2342V8.24204C39.4515 6.78459 41.3832 6.01121 43.701 6.01121C47.5045 6.01121 50.3271 8.18218 50.3271 12.9734Z" fill="black"/>
<path d="M65.8927 13.3601L62.5948 16.7519V22.079H58.7314V1.25122H62.5948V11.9321L72.8755 1.25122H77.2132L68.478 10.5631L77.7483 22.079H73.2313L65.8927 13.3601Z" fill="black"/>
<path d="M101.692 16.5144C101.692 20.0554 99.0774 22.0781 93.8772 22.0781H84.309V1.25032H93.2833C97.918 1.25032 100.593 3.21416 100.593 6.60597C100.593 8.98687 99.3146 10.5631 97.4132 11.3365C100.087 11.9321 101.692 13.6879 101.692 16.5144ZM86.5082 3.065V10.6229H93.1343C96.4626 10.6229 98.3933 9.34317 98.3933 6.84351C98.3933 4.34476 96.4626 3.065 93.1343 3.065H86.5082ZM99.4929 16.3358C99.4929 13.628 97.5024 12.4376 93.8478 12.4376H86.5082V20.2634H93.8478C97.5024 20.2634 99.4929 19.073 99.4929 16.3358Z" fill="black"/>
<path d="M117.437 14.9078H104.363C104.6 18.1808 107.096 20.3527 110.514 20.3527C112.415 20.3527 114.109 19.6687 115.297 18.2996L116.486 19.6687C115.09 21.3342 112.921 22.2272 110.454 22.2272C105.581 22.2272 102.254 18.8944 102.254 14.2532C102.254 9.61109 105.492 6.30859 109.89 6.30859C114.287 6.30859 117.466 9.55217 117.466 14.2532C117.466 14.4318 117.437 14.6693 117.437 14.9078ZM104.363 13.3307H115.446C115.179 10.2657 112.95 8.12325 109.89 8.12325C106.858 8.12325 104.631 10.2657 104.363 13.3307Z" fill="black"/>
<path d="M130.684 12.3787V22.0781H128.665V19.6392C127.714 21.2458 125.871 22.2272 123.286 22.2272C119.75 22.2272 117.581 20.3822 117.581 17.6745C117.581 15.265 119.127 13.2414 123.613 13.2414H128.575V12.2894C128.575 9.6111 127.06 8.15272 124.148 8.15272C122.128 8.15272 120.225 8.86717 118.948 9.99777L117.998 8.42065C119.573 7.08198 121.89 6.30859 124.356 6.30859C128.398 6.30859 130.684 8.33133 130.684 12.3787ZM128.576 17.3771V14.8185H123.673C120.643 14.8185 119.662 16.009 119.662 17.6156C119.662 19.4302 121.118 20.5608 123.614 20.5608C125.991 20.5608 127.743 19.4302 128.576 17.3771Z" fill="black"/>
<path d="M148.065 6.42739V22.0791H146.045V19.2222C144.945 21.1262 142.924 22.2273 140.428 22.2273C136.447 22.2273 133.832 19.9955 133.832 15.5026V6.42739H135.941V15.2945C135.941 18.6265 137.665 20.3233 140.637 20.3233C143.905 20.3233 145.955 18.2103 145.955 14.6399V6.42739H148.065Z" fill="black"/>
<path d="M159.769 21.1261C158.937 21.87 157.688 22.2272 156.47 22.2272C153.529 22.2272 151.895 20.5608 151.895 17.6745V8.21257H149.101V6.42736H151.895V3.00516H154.004V6.42736H158.759V8.21257H154.004V17.5557C154.004 19.3998 154.956 20.4126 156.708 20.4126C157.57 20.4126 158.432 20.1447 159.025 19.6088L159.769 21.1261Z" fill="black"/>
<path d="M174 6.42739L166.185 23.9536C164.878 27.0176 163.215 28 160.986 28C159.53 28 158.133 27.524 157.182 26.5711L158.162 24.9949C158.935 25.7682 159.885 26.1844 161.015 26.1844C162.412 26.1844 163.363 25.5307 164.253 23.566L164.937 22.0487L157.955 6.42739H160.153L166.037 19.7276L171.919 6.42739H174Z" fill="black"/>
<path d="M38.4612 2.0559C38.4612 3.18834 37.5446 4.10718 36.4128 4.10718C35.2819 4.10718 34.3653 3.18834 34.3653 2.0559C34.3653 0.92345 35.2819 0.00460793 36.4128 0.00460793C37.5446 0.00460793 38.4612 0.92345 38.4612 2.0559Z" fill="black"/>
</svg>
