<svg width="24" height="22" viewBox="0 0 24 22" fill="none" xmlns="http://www.w3.org/2000/svg">
<path d="M14.3506 1.1123C16.0961 0.54149 17.9316 0.62194 19.6807 1.51758C22.5644 2.84896 23.7739 6.47067 23.04 10.4707L23.0391 10.4697C22.6242 12.9462 20.9189 15.6341 18.8271 17.6963C17.778 18.7306 16.6231 19.6159 15.4707 20.2441C14.3207 20.8711 13.1575 21.25 12.0957 21.25H12.0908C11.0304 21.2292 9.86837 20.8357 8.7168 20.1992C7.56285 19.5614 6.40432 18.6713 5.3457 17.6377C3.23391 15.5758 1.48843 12.9094 0.992188 10.4756L0.991211 10.4746C0.174286 6.3871 1.46933 2.84737 4.34961 1.51758C6.06109 0.67956 7.7822 0.553144 9.36816 1.01367L9.68359 1.11426L9.69043 1.11621L10.083 1.27637C10.8766 1.62392 11.5204 2.06057 12.0156 2.50879C12.6049 1.98587 13.4398 1.48466 14.334 1.11914L14.3418 1.11523L14.3506 1.1123ZM18.9082 3.3125C17.5842 2.70132 16.3674 2.55986 15.1592 3.00391C14.1641 3.37954 13.3929 4.0604 12.9277 4.59277L12.9141 4.60645C12.4951 5.01738 11.7764 5.01746 11.3574 4.60645L11.3506 4.59961L11.3447 4.59277C10.881 4.06202 10.1118 3.38512 9.12109 3.00879C8.58125 2.85851 8.04495 2.78418 7.59082 2.78418C6.836 2.78427 6.0689 3.00533 5.27734 3.31543C3.42475 4.19334 2.4579 6.79814 3.09082 10.0605L3.17578 10.4297C3.66238 12.2911 5.04309 14.4059 6.7041 16.0996C7.58695 16.9998 8.53993 17.7722 9.46484 18.3174C10.3939 18.865 11.2744 19.1719 12.0156 19.1719H12.0898C12.8549 19.1535 13.7523 18.8353 14.6924 18.2842C15.6292 17.7349 16.5907 16.9646 17.4785 16.0693C19.2601 14.2726 20.7117 12.0061 21.1006 10.0605C21.7338 6.79699 20.8463 4.26667 18.9082 3.3125Z" fill="black" stroke="black" stroke-width="0.5"/>
</svg>
